<svg width="32" height="32" viewBox="0 0 32 32" fill="none" xmlns="http://www.w3.org/2000/svg">
  <!-- Main heart shape -->
  <path d="M16 28C16 28 4 18 4 11C4 7.13401 7.13401 4 11 4C13.12 4 15.16 5.2 16 7C16.84 5.2 18.88 4 21 4C24.866 4 28 7.13401 28 11C28 18 16 28 16 28Z" fill="#FF1493" stroke="#DC143C" stroke-width="1"/>
  
  <!-- Gradient highlight -->
  <defs>
    <linearGradient id="heartGradient" x1="0%" y1="0%" x2="100%" y2="100%">
      <stop offset="0%" style="stop-color:#FF69B4;stop-opacity:0.8" />
      <stop offset="100%" style="stop-color:#FF1493;stop-opacity:1" />
    </linearGradient>
  </defs>
  
  <!-- Inner glow -->
  <path d="M16 26C16 26 6 17 6 11C6 8.23858 8.23858 6 11 6C12.78 6 14.45 6.89 15.5 8.5C15.72 8.89 16.28 8.89 16.5 8.5C17.55 6.89 19.22 6 21 6C23.7614 6 26 8.23858 26 11C26 17 16 26 16 26Z" fill="url(#heartGradient)"/>
  
  <!-- Sparkle effects -->
  <circle cx="13" cy="12" r="1" fill="#FFB6C1" opacity="0.9"/>
  <circle cx="19" cy="12" r="0.8" fill="#FFB6C1" opacity="0.7"/>
  <circle cx="16" cy="15" r="0.6" fill="#FFCCCB" opacity="0.8"/>
</svg>
